<svg id="visual" viewBox="0 0 900 600" width="900" height="600" xmlns="http://www.w3.org/2000/svg" xmlns:xlink="http://www.w3.org/1999/xlink" version="1.1"><g stroke-width="1" stroke-linejoin="bevel"><path d="M468 327.9L469 361.9L475 326Z" fill="#19435d" stroke="#19435d"></path><path d="M469 361.9L503 358.7L475 326Z" fill="#081a28" stroke="#081a28"></path><path d="M469 361.9L483 396.7L503 358.7Z" fill="#19435d" stroke="#19435d"></path><path d="M473 265.1L422 323L468 327.9Z" fill="#081a28" stroke="#081a28"></path><path d="M468 327.9L422 323L469 361.9Z" fill="#246688" stroke="#246688"></path><path d="M410 424.7L477 418.6L483 396.7Z" fill="#00101c" stroke="#00101c"></path><path d="M483 396.7L516 388.6L503 358.7Z" fill="#277297" stroke="#277297"></path><path d="M495 422.6L521 394.7L516 388.6Z" fill="#0c2435" stroke="#0c2435"></path><path d="M516 388.6L563 368.9L503 358.7Z" fill="#0c2435" stroke="#0c2435"></path><path d="M410 424.7L483 396.7L469 361.9Z" fill="#00101c" stroke="#00101c"></path><path d="M483 396.7L495 422.6L516 388.6Z" fill="#00101c" stroke="#00101c"></path><path d="M390 283L403 320L422 323Z" fill="#00101c" stroke="#00101c"></path><path d="M422 323L382 375.9L469 361.9Z" fill="#246688" stroke="#246688"></path><path d="M512 252.3L473 265.1L475 326Z" fill="#1d4e6b" stroke="#1d4e6b"></path><path d="M475 326L473 265.1L468 327.9Z" fill="#00101c" stroke="#00101c"></path><path d="M512 252.3L475 326L548 273Z" fill="#081a28" stroke="#081a28"></path><path d="M477 418.6L495 422.6L483 396.7Z" fill="#0c2435" stroke="#0c2435"></path><path d="M477 418.6L492 431.4L495 422.6Z" fill="#277297" stroke="#277297"></path><path d="M495 422.6L539 440.4L521 394.7Z" fill="#205a7a" stroke="#205a7a"></path><path d="M573 378.9L563 368.9L521 394.7Z" fill="#246688" stroke="#246688"></path><path d="M521 394.7L563 368.9L516 388.6Z" fill="#112e42" stroke="#112e42"></path><path d="M548 273L475 326L503 358.7Z" fill="#297ea6" stroke="#297ea6"></path><path d="M403 320L382 375.9L422 323Z" fill="#297ea6" stroke="#297ea6"></path><path d="M477 418.6L430 489.4L492 431.4Z" fill="#277297" stroke="#277297"></path><path d="M563 368.9L548 273L503 358.7Z" fill="#297ea6" stroke="#297ea6"></path><path d="M570 426.6L573 378.9L521 394.7Z" fill="#15384f" stroke="#15384f"></path><path d="M635 287L559 260.1L548 273Z" fill="#19435d" stroke="#19435d"></path><path d="M382 375.9L410 424.7L469 361.9Z" fill="#0c2435" stroke="#0c2435"></path><path d="M473 265.1L390 283L422 323Z" fill="#297ea6" stroke="#297ea6"></path><path d="M403 320L367 347.7L382 375.9Z" fill="#00101c" stroke="#00101c"></path><path d="M372 265.1L390 283L412 229.1Z" fill="#19435d" stroke="#19435d"></path><path d="M390 283L367 347.7L403 320Z" fill="#0c2435" stroke="#0c2435"></path><path d="M559 260.1L550 260L548 273Z" fill="#15384f" stroke="#15384f"></path><path d="M548 273L550 260L512 252.3Z" fill="#277297" stroke="#277297"></path><path d="M496 495.3L539 440.4L492 431.4Z" fill="#277297" stroke="#277297"></path><path d="M492 431.4L539 440.4L495 422.6Z" fill="#00101c" stroke="#00101c"></path><path d="M367 347.7L361 366.9L382 375.9Z" fill="#0c2435" stroke="#0c2435"></path><path d="M382 375.9L342 392.6L410 424.7Z" fill="#081a28" stroke="#081a28"></path><path d="M599 355.9L548 273L563 368.9Z" fill="#205a7a" stroke="#205a7a"></path><path d="M550 260L505 223.1L512 252.3Z" fill="#277297" stroke="#277297"></path><path d="M611 361.7L599 355.9L573 378.9Z" fill="#297ea6" stroke="#297ea6"></path><path d="M573 378.9L599 355.9L563 368.9Z" fill="#081a28" stroke="#081a28"></path><path d="M539 440.4L570 426.6L521 394.7Z" fill="#1d4e6b" stroke="#1d4e6b"></path><path d="M565 204.3L505 223.1L550 260Z" fill="#277297" stroke="#277297"></path><path d="M512 252.3L505 223.1L473 265.1Z" fill="#246688" stroke="#246688"></path><path d="M412 229.1L390 283L473 265.1Z" fill="#00101c" stroke="#00101c"></path><path d="M390 283L372 265.1L367 347.7Z" fill="#246688" stroke="#246688"></path><path d="M303 378.9L342 392.6L361 366.9Z" fill="#246688" stroke="#246688"></path><path d="M457 204.4L412 229.1L473 265.1Z" fill="#112e42" stroke="#112e42"></path><path d="M332 452.4L406 460.6L410 424.7Z" fill="#19435d" stroke="#19435d"></path><path d="M410 424.7L406 460.6L477 418.6Z" fill="#15384f" stroke="#15384f"></path><path d="M635 404.6L611 361.7L573 378.9Z" fill="#1d4e6b" stroke="#1d4e6b"></path><path d="M599 355.9L635 287L548 273Z" fill="#1d4e6b" stroke="#1d4e6b"></path><path d="M505 223.1L468 204.3L473 265.1Z" fill="#205a7a" stroke="#205a7a"></path><path d="M468 204.3L457 204.4L473 265.1Z" fill="#081a28" stroke="#081a28"></path><path d="M303 378.9L361 366.9L298 358.7Z" fill="#1d4e6b" stroke="#1d4e6b"></path><path d="M361 366.9L342 392.6L382 375.9Z" fill="#277297" stroke="#277297"></path><path d="M430 489.4L496 495.3L492 431.4Z" fill="#205a7a" stroke="#205a7a"></path><path d="M539 440.4L567 478.4L570 426.6Z" fill="#1d4e6b" stroke="#1d4e6b"></path><path d="M425 489.4L430 489.4L406 460.6Z" fill="#297ea6" stroke="#297ea6"></path><path d="M406 460.6L430 489.4L477 418.6Z" fill="#246688" stroke="#246688"></path><path d="M340 510.3L425 489.4L406 460.6Z" fill="#112e42" stroke="#112e42"></path><path d="M430 489.4L468 521.1L496 495.3Z" fill="#277297" stroke="#277297"></path><path d="M565 204.3L503 188.4L505 223.1Z" fill="#0c2435" stroke="#0c2435"></path><path d="M505 223.1L503 188.4L468 204.3Z" fill="#00101c" stroke="#00101c"></path><path d="M468 204.3L439 181.4L457 204.4Z" fill="#205a7a" stroke="#205a7a"></path><path d="M558 487.3L567 478.4L539 440.4Z" fill="#246688" stroke="#246688"></path><path d="M635 404.6L640 350.7L611 361.7Z" fill="#15384f" stroke="#15384f"></path><path d="M635 404.6L573 378.9L570 426.6Z" fill="#205a7a" stroke="#205a7a"></path><path d="M611 361.7L640 350.7L599 355.9Z" fill="#1d4e6b" stroke="#1d4e6b"></path><path d="M559 260.1L565 204.3L550 260Z" fill="#112e42" stroke="#112e42"></path><path d="M496 495.3L558 487.3L539 440.4Z" fill="#246688" stroke="#246688"></path><path d="M610 240.1L565 204.3L559 260.1Z" fill="#15384f" stroke="#15384f"></path><path d="M479 144.4L439 181.4L468 204.3Z" fill="#112e42" stroke="#112e42"></path><path d="M457 204.4L439 181.4L412 229.1Z" fill="#297ea6" stroke="#297ea6"></path><path d="M412 229.1L380 198.3L372 265.1Z" fill="#15384f" stroke="#15384f"></path><path d="M640 350.7L635 287L599 355.9Z" fill="#205a7a" stroke="#205a7a"></path><path d="M649 465.6L635 404.6L570 426.6Z" fill="#297ea6" stroke="#297ea6"></path><path d="M635 287L610 240.1L559 260.1Z" fill="#1d4e6b" stroke="#1d4e6b"></path><path d="M635 239.1L614 237.3L610 240.1Z" fill="#19435d" stroke="#19435d"></path><path d="M610 240.1L616 195.3L565 204.3Z" fill="#15384f" stroke="#15384f"></path><path d="M401 183.3L380 198.3L412 229.1Z" fill="#277297" stroke="#277297"></path><path d="M298 358.7L361 366.9L367 347.7Z" fill="#205a7a" stroke="#205a7a"></path><path d="M298 358.7L367 347.7L291 292Z" fill="#205a7a" stroke="#205a7a"></path><path d="M342 392.6L332 452.4L410 424.7Z" fill="#00101c" stroke="#00101c"></path><path d="M433 523.3L468 521.1L430 489.4Z" fill="#205a7a" stroke="#205a7a"></path><path d="M547 564.1L597 536.1L558 487.3Z" fill="#297ea6" stroke="#297ea6"></path><path d="M439 181.4L401 183.3L412 229.1Z" fill="#246688" stroke="#246688"></path><path d="M291 292L367 347.7L372 265.1Z" fill="#081a28" stroke="#081a28"></path><path d="M277 417.6L332 452.4L342 392.6Z" fill="#205a7a" stroke="#205a7a"></path><path d="M425 489.4L433 523.3L430 489.4Z" fill="#15384f" stroke="#15384f"></path><path d="M298 358.7L298 376.7L303 378.9Z" fill="#0c2435" stroke="#0c2435"></path><path d="M277 417.6L318 462.6L332 452.4Z" fill="#081a28" stroke="#081a28"></path><path d="M344 533.3L433 523.3L425 489.4Z" fill="#19435d" stroke="#19435d"></path><path d="M318 462.6L337 466.4L332 452.4Z" fill="#081a28" stroke="#081a28"></path><path d="M332 452.4L337 466.4L406 460.6Z" fill="#15384f" stroke="#15384f"></path><path d="M677 351.7L660 319.9L640 350.7Z" fill="#277297" stroke="#277297"></path><path d="M640 350.7L660 319.9L635 287Z" fill="#15384f" stroke="#15384f"></path><path d="M635 287L635 239.1L610 240.1Z" fill="#297ea6" stroke="#297ea6"></path><path d="M331 204.4L316 248.3L372 265.1Z" fill="#081a28" stroke="#081a28"></path><path d="M401 183.3L363 191.4L380 198.3Z" fill="#1d4e6b" stroke="#1d4e6b"></path><path d="M380 198.3L331 204.4L372 265.1Z" fill="#15384f" stroke="#15384f"></path><path d="M677 232.1L635 239.1L635 287Z" fill="#112e42" stroke="#112e42"></path><path d="M616 195.3L557 169.4L565 204.3Z" fill="#1d4e6b" stroke="#1d4e6b"></path><path d="M316 248.3L291 292L372 265.1Z" fill="#246688" stroke="#246688"></path><path d="M298 358.7L259 376.7L298 376.7Z" fill="#081a28" stroke="#081a28"></path><path d="M565 204.3L557 169.4L503 188.4Z" fill="#15384f" stroke="#15384f"></path><path d="M503 188.4L479 144.4L468 204.3Z" fill="#081a28" stroke="#081a28"></path><path d="M439 181.4L427 118.7L401 183.3Z" fill="#19435d" stroke="#19435d"></path><path d="M616 195.3L610 240.1L614 237.3Z" fill="#00101c" stroke="#00101c"></path><path d="M277 417.6L342 392.6L303 378.9Z" fill="#205a7a" stroke="#205a7a"></path><path d="M337 466.4L340 510.3L406 460.6Z" fill="#081a28" stroke="#081a28"></path><path d="M291 292L277 344.9L298 358.7Z" fill="#00101c" stroke="#00101c"></path><path d="M298 376.7L277 417.6L303 378.9Z" fill="#112e42" stroke="#112e42"></path><path d="M557 169.4L479 144.4L503 188.4Z" fill="#277297" stroke="#277297"></path><path d="M374 115.7L332 146.6L363 191.4Z" fill="#297ea6" stroke="#297ea6"></path><path d="M558 487.3L598 504.3L567 478.4Z" fill="#15384f" stroke="#15384f"></path><path d="M567 478.4L649 465.6L570 426.6Z" fill="#15384f" stroke="#15384f"></path><path d="M597 536.1L598 504.3L558 487.3Z" fill="#15384f" stroke="#15384f"></path><path d="M688 425.6L677 351.7L635 404.6Z" fill="#277297" stroke="#277297"></path><path d="M635 404.6L677 351.7L640 350.7Z" fill="#1d4e6b" stroke="#1d4e6b"></path><path d="M660 319.9L677 232.1L635 287Z" fill="#15384f" stroke="#15384f"></path><path d="M363 191.4L331 204.4L380 198.3Z" fill="#112e42" stroke="#112e42"></path><path d="M286 257.1L278 287L291 292Z" fill="#081a28" stroke="#081a28"></path><path d="M598 504.3L605 500.4L567 478.4Z" fill="#112e42" stroke="#112e42"></path><path d="M635 239.1L616 195.3L614 237.3Z" fill="#205a7a" stroke="#205a7a"></path><path d="M286 257.1L291 292L316 248.3Z" fill="#19435d" stroke="#19435d"></path><path d="M291 292L253 320.9L277 344.9Z" fill="#297ea6" stroke="#297ea6"></path><path d="M433 523.3L464 553.3L468 521.1Z" fill="#112e42" stroke="#112e42"></path><path d="M468 521.1L515 570.1L496 495.3Z" fill="#112e42" stroke="#112e42"></path><path d="M423 565.1L464 553.3L433 523.3Z" fill="#112e42" stroke="#112e42"></path><path d="M283 248.1L286 257.1L316 248.3Z" fill="#112e42" stroke="#112e42"></path><path d="M605 500.4L649 465.6L567 478.4Z" fill="#297ea6" stroke="#297ea6"></path><path d="M259 376.7L277 417.6L298 376.7Z" fill="#297ea6" stroke="#297ea6"></path><path d="M605 500.4L647 473.4L649 465.6Z" fill="#246688" stroke="#246688"></path><path d="M344 533.3L298 548.3L340 564.1Z" fill="#205a7a" stroke="#205a7a"></path><path d="M318 462.6L340 510.3L337 466.4Z" fill="#00101c" stroke="#00101c"></path><path d="M475 95.7L449 130.6L479 144.4Z" fill="#246688" stroke="#246688"></path><path d="M479 144.4L449 130.6L439 181.4Z" fill="#112e42" stroke="#112e42"></path><path d="M332 146.6L307 185.3L331 204.4Z" fill="#00101c" stroke="#00101c"></path><path d="M307 185.3L283 248.1L316 248.3Z" fill="#00101c" stroke="#00101c"></path><path d="M286 257.1L283 248.1L278 287Z" fill="#19435d" stroke="#19435d"></path><path d="M597 536.1L627 499.3L605 500.4Z" fill="#0c2435" stroke="#0c2435"></path><path d="M605 500.4L627 499.3L647 473.4Z" fill="#19435d" stroke="#19435d"></path><path d="M597 536.1L605 500.4L598 504.3Z" fill="#081a28" stroke="#081a28"></path><path d="M253 320.9L259 376.7L277 344.9Z" fill="#1d4e6b" stroke="#1d4e6b"></path><path d="M277 344.9L259 376.7L298 358.7Z" fill="#0c2435" stroke="#0c2435"></path><path d="M253 320.9L291 292L278 287Z" fill="#246688" stroke="#246688"></path><path d="M751 359.7L697 334L677 351.7Z" fill="#0c2435" stroke="#0c2435"></path><path d="M677 351.7L697 334L660 319.9Z" fill="#15384f" stroke="#15384f"></path><path d="M635 239.1L665 210.4L616 195.3Z" fill="#19435d" stroke="#19435d"></path><path d="M688 425.6L635 404.6L649 465.6Z" fill="#112e42" stroke="#112e42"></path><path d="M220 283L253 320.9L278 287Z" fill="#277297" stroke="#277297"></path><path d="M547 564.1L558 487.3L496 495.3Z" fill="#1d4e6b" stroke="#1d4e6b"></path><path d="M733 491.4L649 465.6L647 473.4Z" fill="#19435d" stroke="#19435d"></path><path d="M733 491.4L688 425.6L649 465.6Z" fill="#205a7a" stroke="#205a7a"></path><path d="M678 523.3L647 473.4L627 499.3Z" fill="#00101c" stroke="#00101c"></path><path d="M344 533.3L423 565.1L433 523.3Z" fill="#15384f" stroke="#15384f"></path><path d="M464 553.3L515 570.1L468 521.1Z" fill="#0c2435" stroke="#0c2435"></path><path d="M481 600L515 570.1L464 553.3Z" fill="#246688" stroke="#246688"></path><path d="M709 328.9L705 327L697 334Z" fill="#19435d" stroke="#19435d"></path><path d="M697 334L705 327L660 319.9Z" fill="#00101c" stroke="#00101c"></path><path d="M705 327L677 232.1L660 319.9Z" fill="#205a7a" stroke="#205a7a"></path><path d="M298 548.3L340 510.3L270 523.1Z" fill="#00101c" stroke="#00101c"></path><path d="M340 510.3L344 533.3L425 489.4Z" fill="#297ea6" stroke="#297ea6"></path><path d="M515 570.1L547 564.1L496 495.3Z" fill="#277297" stroke="#277297"></path><path d="M475 95.7L427 118.7L449 130.6Z" fill="#205a7a" stroke="#205a7a"></path><path d="M449 130.6L427 118.7L439 181.4Z" fill="#277297" stroke="#277297"></path><path d="M677 232.1L665 210.4L635 239.1Z" fill="#205a7a" stroke="#205a7a"></path><path d="M514 92.6L479 144.4L557 169.4Z" fill="#277297" stroke="#277297"></path><path d="M514 92.6L475 95.7L479 144.4Z" fill="#00101c" stroke="#00101c"></path><path d="M332 146.6L331 204.4L363 191.4Z" fill="#081a28" stroke="#081a28"></path><path d="M331 204.4L307 185.3L316 248.3Z" fill="#277297" stroke="#277297"></path><path d="M283 248.1L220 283L278 287Z" fill="#081a28" stroke="#081a28"></path><path d="M751 359.7L709 328.9L697 334Z" fill="#00101c" stroke="#00101c"></path><path d="M705 327L717 219.1L677 232.1Z" fill="#246688" stroke="#246688"></path><path d="M249 436.4L258 444.4L277 417.6Z" fill="#246688" stroke="#246688"></path><path d="M277 417.6L258 444.4L318 462.6Z" fill="#277297" stroke="#277297"></path><path d="M249 436.4L277 417.6L259 376.7Z" fill="#205a7a" stroke="#205a7a"></path><path d="M374 115.7L363 191.4L401 183.3Z" fill="#081a28" stroke="#081a28"></path><path d="M206 391.6L249 436.4L259 376.7Z" fill="#00101c" stroke="#00101c"></path><path d="M298 548.3L344 533.3L340 510.3Z" fill="#297ea6" stroke="#297ea6"></path><path d="M514 92.6L557 169.4L561 103.6Z" fill="#15384f" stroke="#15384f"></path><path d="M427 118.7L374 115.7L401 183.3Z" fill="#277297" stroke="#277297"></path><path d="M419 89.6L374 115.7L427 118.7Z" fill="#0c2435" stroke="#0c2435"></path><path d="M561 103.6L557 169.4L639 135.6Z" fill="#081a28" stroke="#081a28"></path><path d="M449 600L464 553.3L423 565.1Z" fill="#277297" stroke="#277297"></path><path d="M449 600L481 600L464 553.3Z" fill="#0c2435" stroke="#0c2435"></path><path d="M515 570.1L549 600L547 564.1Z" fill="#297ea6" stroke="#297ea6"></path><path d="M639 135.6L557 169.4L616 195.3Z" fill="#205a7a" stroke="#205a7a"></path><path d="M677 232.1L680 189.4L665 210.4Z" fill="#0c2435" stroke="#0c2435"></path><path d="M665 210.4L669 175.3L616 195.3Z" fill="#19435d" stroke="#19435d"></path><path d="M717 219.1L680 189.4L677 232.1Z" fill="#205a7a" stroke="#205a7a"></path><path d="M680 189.4L669 175.3L665 210.4Z" fill="#297ea6" stroke="#297ea6"></path><path d="M376 600L449 600L423 565.1Z" fill="#205a7a" stroke="#205a7a"></path><path d="M340 510.3L318 462.6L270 523.1Z" fill="#246688" stroke="#246688"></path><path d="M344 533.3L340 564.1L423 565.1Z" fill="#277297" stroke="#277297"></path><path d="M475 95.7L419 89.6L427 118.7Z" fill="#246688" stroke="#246688"></path><path d="M478 60.9L419 89.6L475 95.7Z" fill="#277297" stroke="#277297"></path><path d="M236 208.4L220 283L283 248.1Z" fill="#297ea6" stroke="#297ea6"></path><path d="M253 320.9L206 391.6L259 376.7Z" fill="#081a28" stroke="#081a28"></path><path d="M236 208.4L283 248.1L307 185.3Z" fill="#277297" stroke="#277297"></path><path d="M667 145.6L639 135.6L669 175.3Z" fill="#112e42" stroke="#112e42"></path><path d="M669 175.3L639 135.6L616 195.3Z" fill="#00101c" stroke="#00101c"></path><path d="M481 600L549 600L515 570.1Z" fill="#246688" stroke="#246688"></path><path d="M547 564.1L613 595.1L597 536.1Z" fill="#246688" stroke="#246688"></path><path d="M597 536.1L655 546.1L627 499.3Z" fill="#112e42" stroke="#112e42"></path><path d="M613 595.1L655 546.1L597 536.1Z" fill="#112e42" stroke="#112e42"></path><path d="M655 546.1L678 523.3L627 499.3Z" fill="#246688" stroke="#246688"></path><path d="M688 425.6L751 359.7L677 351.7Z" fill="#277297" stroke="#277297"></path><path d="M270 523.1L318 462.6L258 444.4Z" fill="#246688" stroke="#246688"></path><path d="M757 241.3L717 219.1L705 327Z" fill="#1d4e6b" stroke="#1d4e6b"></path><path d="M680 189.4L667 145.6L669 175.3Z" fill="#0c2435" stroke="#0c2435"></path><path d="M211 456.4L270 523.1L258 444.4Z" fill="#277297" stroke="#277297"></path><path d="M161 307.9L206 391.6L253 320.9Z" fill="#277297" stroke="#277297"></path><path d="M249 436.4L211 456.4L258 444.4Z" fill="#0c2435" stroke="#0c2435"></path><path d="M354 600L376 600L340 564.1Z" fill="#0c2435" stroke="#0c2435"></path><path d="M340 564.1L376 600L423 565.1Z" fill="#112e42" stroke="#112e42"></path><path d="M775 393.7L751 359.7L688 425.6Z" fill="#246688" stroke="#246688"></path><path d="M709 328.9L761 303L705 327Z" fill="#19435d" stroke="#19435d"></path><path d="M750 144.6L667 145.6L680 189.4Z" fill="#1d4e6b" stroke="#1d4e6b"></path><path d="M530 64.9L514 92.6L561 103.6Z" fill="#15384f" stroke="#15384f"></path><path d="M307 122.6L307 185.3L332 146.6Z" fill="#277297" stroke="#277297"></path><path d="M223 175.3L236 208.4L239 151.6Z" fill="#297ea6" stroke="#297ea6"></path><path d="M270 523.1L293 552.1L298 548.3Z" fill="#246688" stroke="#246688"></path><path d="M298 548.3L293 552.1L340 564.1Z" fill="#297ea6" stroke="#297ea6"></path><path d="M289 110.7L307 122.6L337 55.9Z" fill="#277297" stroke="#277297"></path><path d="M374 115.7L307 122.6L332 146.6Z" fill="#112e42" stroke="#112e42"></path><path d="M346 600L354 600L340 564.1Z" fill="#081a28" stroke="#081a28"></path><path d="M528 57.7L478 60.9L514 92.6Z" fill="#277297" stroke="#277297"></path><path d="M514 92.6L478 60.9L475 95.7Z" fill="#0c2435" stroke="#0c2435"></path><path d="M337 55.9L307 122.6L374 115.7Z" fill="#00101c" stroke="#00101c"></path><path d="M530 64.9L561 103.6L590 52.7Z" fill="#297ea6" stroke="#297ea6"></path><path d="M609 91.6L561 103.6L639 135.6Z" fill="#277297" stroke="#277297"></path><path d="M736 520.3L733 491.4L678 523.3Z" fill="#15384f" stroke="#15384f"></path><path d="M549 600L613 595.1L547 564.1Z" fill="#297ea6" stroke="#297ea6"></path><path d="M646 95.7L609 91.6L639 135.6Z" fill="#0c2435" stroke="#0c2435"></path><path d="M276 600L346 600L340 564.1Z" fill="#15384f" stroke="#15384f"></path><path d="M206 391.6L211 456.4L249 436.4Z" fill="#0c2435" stroke="#0c2435"></path><path d="M238 588.1L276 600L293 552.1Z" fill="#00101c" stroke="#00101c"></path><path d="M766 325.9L761 303L709 328.9Z" fill="#081a28" stroke="#081a28"></path><path d="M549 600L612 600L613 595.1Z" fill="#112e42" stroke="#112e42"></path><path d="M613 595.1L653 600L655 546.1Z" fill="#00101c" stroke="#00101c"></path><path d="M751 359.7L766 325.9L709 328.9Z" fill="#15384f" stroke="#15384f"></path><path d="M590 52.7L528 57.7L530 64.9Z" fill="#112e42" stroke="#112e42"></path><path d="M530 64.9L528 57.7L514 92.6Z" fill="#081a28" stroke="#081a28"></path><path d="M733 491.4L647 473.4L678 523.3Z" fill="#15384f" stroke="#15384f"></path><path d="M733 491.4L749 457.4L688 425.6Z" fill="#246688" stroke="#246688"></path><path d="M819 367.7L811 323.9L766 325.9Z" fill="#0c2435" stroke="#0c2435"></path><path d="M609 91.6L601 76.7L561 103.6Z" fill="#246688" stroke="#246688"></path><path d="M646 95.7L601 76.7L609 91.6Z" fill="#1d4e6b" stroke="#1d4e6b"></path><path d="M694 600L678 523.3L655 546.1Z" fill="#00101c" stroke="#00101c"></path><path d="M761 303L757 241.3L705 327Z" fill="#246688" stroke="#246688"></path><path d="M717 219.1L749 176.4L680 189.4Z" fill="#15384f" stroke="#15384f"></path><path d="M770 268.1L757 241.3L761 303Z" fill="#246688" stroke="#246688"></path><path d="M395 51.7L374 115.7L419 89.6Z" fill="#205a7a" stroke="#205a7a"></path><path d="M307 122.6L239 151.6L307 185.3Z" fill="#297ea6" stroke="#297ea6"></path><path d="M673 57.9L646 95.7L667 145.6Z" fill="#081a28" stroke="#081a28"></path><path d="M667 145.6L646 95.7L639 135.6Z" fill="#246688" stroke="#246688"></path><path d="M749 457.4L775 393.7L688 425.6Z" fill="#246688" stroke="#246688"></path><path d="M818 278.1L770 268.1L761 303Z" fill="#297ea6" stroke="#297ea6"></path><path d="M787 228.3L770 268.1L818 278.1Z" fill="#081a28" stroke="#081a28"></path><path d="M461 32.9L419 89.6L478 60.9Z" fill="#19435d" stroke="#19435d"></path><path d="M461 32.9L395 51.7L419 89.6Z" fill="#00101c" stroke="#00101c"></path><path d="M239 151.6L236 208.4L307 185.3Z" fill="#112e42" stroke="#112e42"></path><path d="M236 208.4L186 251.3L220 283Z" fill="#1d4e6b" stroke="#1d4e6b"></path><path d="M154 314L175 403.7L206 391.6Z" fill="#081a28" stroke="#081a28"></path><path d="M191 220.1L186 251.3L236 208.4Z" fill="#0c2435" stroke="#0c2435"></path><path d="M206 391.6L175 403.7L211 456.4Z" fill="#15384f" stroke="#15384f"></path><path d="M255 120.7L239 151.6L307 122.6Z" fill="#00101c" stroke="#00101c"></path><path d="M161 307.9L253 320.9L220 283Z" fill="#112e42" stroke="#112e42"></path><path d="M612 600L653 600L613 595.1Z" fill="#1d4e6b" stroke="#1d4e6b"></path><path d="M223 175.3L191 220.1L236 208.4Z" fill="#297ea6" stroke="#297ea6"></path><path d="M195 163.4L191 220.1L223 175.3Z" fill="#277297" stroke="#277297"></path><path d="M448 0L461 32.9L519 0Z" fill="#19435d" stroke="#19435d"></path><path d="M519 0L461 32.9L478 60.9Z" fill="#19435d" stroke="#19435d"></path><path d="M652 45.9L590 52.7L601 76.7Z" fill="#00101c" stroke="#00101c"></path><path d="M601 76.7L590 52.7L561 103.6Z" fill="#277297" stroke="#277297"></path><path d="M733 491.4L810 488.4L749 457.4Z" fill="#19435d" stroke="#19435d"></path><path d="M749 457.4L784 424.6L775 393.7Z" fill="#1d4e6b" stroke="#1d4e6b"></path><path d="M738 541.1L736 520.3L678 523.3Z" fill="#205a7a" stroke="#205a7a"></path><path d="M289 110.7L255 120.7L307 122.6Z" fill="#1d4e6b" stroke="#1d4e6b"></path><path d="M239 151.6L195 163.4L223 175.3Z" fill="#1d4e6b" stroke="#1d4e6b"></path><path d="M231 75.7L255 120.7L289 110.7Z" fill="#297ea6" stroke="#297ea6"></path><path d="M141 255.1L163 297L186 251.3Z" fill="#277297" stroke="#277297"></path><path d="M186 251.3L163 297L220 283Z" fill="#1d4e6b" stroke="#1d4e6b"></path><path d="M163 297L161 307.9L220 283Z" fill="#081a28" stroke="#081a28"></path><path d="M827 424.6L784 424.6L810 488.4Z" fill="#277297" stroke="#277297"></path><path d="M811 323.9L761 303L766 325.9Z" fill="#0c2435" stroke="#0c2435"></path><path d="M164 486.4L208 519.3L211 456.4Z" fill="#00101c" stroke="#00101c"></path><path d="M211 456.4L208 519.3L270 523.1Z" fill="#246688" stroke="#246688"></path><path d="M293 552.1L276 600L340 564.1Z" fill="#297ea6" stroke="#297ea6"></path><path d="M781 188.4L749 176.4L757 241.3Z" fill="#1d4e6b" stroke="#1d4e6b"></path><path d="M757 241.3L749 176.4L717 219.1Z" fill="#112e42" stroke="#112e42"></path><path d="M322 48.9L337 55.9L383 0Z" fill="#246688" stroke="#246688"></path><path d="M395 51.7L337 55.9L374 115.7Z" fill="#19435d" stroke="#19435d"></path><path d="M653 600L674 600L655 546.1Z" fill="#081a28" stroke="#081a28"></path><path d="M122 319.9L154 314L122 289.1Z" fill="#205a7a" stroke="#205a7a"></path><path d="M163 297L154 314L161 307.9Z" fill="#1d4e6b" stroke="#1d4e6b"></path><path d="M161 307.9L154 314L206 391.6Z" fill="#1d4e6b" stroke="#1d4e6b"></path><path d="M238 588.1L293 552.1L270 523.1Z" fill="#112e42" stroke="#112e42"></path><path d="M127 367.7L159 421.6L175 403.7Z" fill="#1d4e6b" stroke="#1d4e6b"></path><path d="M175 403.7L159 421.6L211 456.4Z" fill="#205a7a" stroke="#205a7a"></path><path d="M694 600L738 541.1L678 523.3Z" fill="#19435d" stroke="#19435d"></path><path d="M736 520.3L757 532.1L733 491.4Z" fill="#081a28" stroke="#081a28"></path><path d="M770 268.1L787 228.3L757 241.3Z" fill="#0c2435" stroke="#0c2435"></path><path d="M766 325.9L751 359.7L819 367.7Z" fill="#112e42" stroke="#112e42"></path><path d="M337 55.9L322 48.9L289 110.7Z" fill="#00101c" stroke="#00101c"></path><path d="M383 0L337 55.9L395 51.7Z" fill="#297ea6" stroke="#297ea6"></path><path d="M781 188.4L757 163.6L749 176.4Z" fill="#277297" stroke="#277297"></path><path d="M749 176.4L750 144.6L680 189.4Z" fill="#00101c" stroke="#00101c"></path><path d="M613 0L581 22.9L590 52.7Z" fill="#297ea6" stroke="#297ea6"></path><path d="M192 133.4L195 163.4L239 151.6Z" fill="#205a7a" stroke="#205a7a"></path><path d="M145 206.4L141 255.1L186 251.3Z" fill="#246688" stroke="#246688"></path><path d="M192 133.4L239 151.6L196 115.6Z" fill="#246688" stroke="#246688"></path><path d="M819 367.7L751 359.7L775 393.7Z" fill="#1d4e6b" stroke="#1d4e6b"></path><path d="M674 600L694 600L655 546.1Z" fill="#277297" stroke="#277297"></path><path d="M754 545.3L757 532.1L738 541.1Z" fill="#081a28" stroke="#081a28"></path><path d="M738 541.1L757 532.1L736 520.3Z" fill="#00101c" stroke="#00101c"></path><path d="M826 402.6L819 367.7L775 393.7Z" fill="#246688" stroke="#246688"></path><path d="M652 45.9L601 76.7L646 95.7Z" fill="#297ea6" stroke="#297ea6"></path><path d="M590 52.7L581 22.9L528 57.7Z" fill="#297ea6" stroke="#297ea6"></path><path d="M774 120.6L750 144.6L757 163.6Z" fill="#15384f" stroke="#15384f"></path><path d="M757 163.6L750 144.6L749 176.4Z" fill="#19435d" stroke="#19435d"></path><path d="M208 519.3L238 588.1L270 523.1Z" fill="#277297" stroke="#277297"></path><path d="M213 600L238 588.1L208 519.3Z" fill="#112e42" stroke="#112e42"></path><path d="M448 0L440 5.9L461 32.9Z" fill="#112e42" stroke="#112e42"></path><path d="M461 32.9L440 5.9L395 51.7Z" fill="#205a7a" stroke="#205a7a"></path><path d="M787 198.3L757 241.3L787 228.3Z" fill="#205a7a" stroke="#205a7a"></path><path d="M787 198.3L781 188.4L757 241.3Z" fill="#205a7a" stroke="#205a7a"></path><path d="M739 600L754 545.3L738 541.1Z" fill="#112e42" stroke="#112e42"></path><path d="M826 402.6L775 393.7L784 424.6Z" fill="#277297" stroke="#277297"></path><path d="M159 421.6L164 486.4L211 456.4Z" fill="#1d4e6b" stroke="#1d4e6b"></path><path d="M818 175.3L787 198.3L787 228.3Z" fill="#205a7a" stroke="#205a7a"></path><path d="M826 402.6L784 424.6L827 424.6Z" fill="#00101c" stroke="#00101c"></path><path d="M519 0L478 60.9L528 57.7Z" fill="#297ea6" stroke="#297ea6"></path><path d="M440 5.9L411 0L395 51.7Z" fill="#297ea6" stroke="#297ea6"></path><path d="M673 57.9L652 45.9L646 95.7Z" fill="#15384f" stroke="#15384f"></path><path d="M145 206.4L186 251.3L191 220.1Z" fill="#112e42" stroke="#112e42"></path><path d="M154 314L127 367.7L175 403.7Z" fill="#081a28" stroke="#081a28"></path><path d="M159 421.6L145 484.3L164 486.4Z" fill="#081a28" stroke="#081a28"></path><path d="M581 22.9L519 0L528 57.7Z" fill="#19435d" stroke="#19435d"></path><path d="M576 0L519 0L581 22.9Z" fill="#205a7a" stroke="#205a7a"></path><path d="M755 119.7L673 57.9L667 145.6Z" fill="#112e42" stroke="#112e42"></path><path d="M848 317L818 278.1L811 323.9Z" fill="#112e42" stroke="#112e42"></path><path d="M811 323.9L818 278.1L761 303Z" fill="#277297" stroke="#277297"></path><path d="M122 319.9L127 367.7L154 314Z" fill="#19435d" stroke="#19435d"></path><path d="M448 0L411 0L440 5.9Z" fill="#081a28" stroke="#081a28"></path><path d="M145 484.3L165 511.3L164 486.4Z" fill="#0c2435" stroke="#0c2435"></path><path d="M164 486.4L165 511.3L208 519.3Z" fill="#19435d" stroke="#19435d"></path><path d="M781 188.4L788 177.4L757 163.6Z" fill="#297ea6" stroke="#297ea6"></path><path d="M750 144.6L755 119.7L667 145.6Z" fill="#246688" stroke="#246688"></path><path d="M787 198.3L788 177.4L781 188.4Z" fill="#19435d" stroke="#19435d"></path><path d="M818 175.3L788 177.4L787 198.3Z" fill="#297ea6" stroke="#297ea6"></path><path d="M196 115.6L239 151.6L255 120.7Z" fill="#0c2435" stroke="#0c2435"></path><path d="M195 163.4L145 206.4L191 220.1Z" fill="#00101c" stroke="#00101c"></path><path d="M810 488.4L733 491.4L757 532.1Z" fill="#081a28" stroke="#081a28"></path><path d="M819 367.7L840 326L811 323.9Z" fill="#1d4e6b" stroke="#1d4e6b"></path><path d="M122 289.1L154 314L163 297Z" fill="#00101c" stroke="#00101c"></path><path d="M192 133.4L179 148.6L195 163.4Z" fill="#15384f" stroke="#15384f"></path><path d="M411 0L383 0L395 51.7Z" fill="#246688" stroke="#246688"></path><path d="M219 86.7L196 115.6L255 120.7Z" fill="#15384f" stroke="#15384f"></path><path d="M774 120.6L755 119.7L750 144.6Z" fill="#1d4e6b" stroke="#1d4e6b"></path><path d="M95 246.1L122 289.1L141 255.1Z" fill="#00101c" stroke="#00101c"></path><path d="M141 255.1L122 289.1L163 297Z" fill="#15384f" stroke="#15384f"></path><path d="M613 0L590 52.7L620 0Z" fill="#297ea6" stroke="#297ea6"></path><path d="M613 0L576 0L581 22.9Z" fill="#0c2435" stroke="#0c2435"></path><path d="M179 148.6L145 206.4L195 163.4Z" fill="#297ea6" stroke="#297ea6"></path><path d="M739 600L775 544.3L754 545.3Z" fill="#205a7a" stroke="#205a7a"></path><path d="M754 545.3L775 544.3L757 532.1Z" fill="#00101c" stroke="#00101c"></path><path d="M92 457.6L145 484.3L159 421.6Z" fill="#277297" stroke="#277297"></path><path d="M810 488.4L784 424.6L749 457.4Z" fill="#15384f" stroke="#15384f"></path><path d="M827 424.6L831 404.7L826 402.6Z" fill="#112e42" stroke="#112e42"></path><path d="M826 402.6L831 404.7L819 367.7Z" fill="#297ea6" stroke="#297ea6"></path><path d="M231 75.7L289 110.7L244 33.9Z" fill="#081a28" stroke="#081a28"></path><path d="M192 133.4L137 105.7L179 148.6Z" fill="#297ea6" stroke="#297ea6"></path><path d="M102 166.6L135 208.3L145 206.4Z" fill="#246688" stroke="#246688"></path><path d="M775 544.3L810 488.4L757 532.1Z" fill="#277297" stroke="#277297"></path><path d="M244 33.9L289 110.7L322 48.9Z" fill="#277297" stroke="#277297"></path><path d="M231 75.7L219 86.7L255 120.7Z" fill="#15384f" stroke="#15384f"></path><path d="M900 320.9L840 326L900 395.6Z" fill="#277297" stroke="#277297"></path><path d="M900 210.4L818 175.3L787 228.3Z" fill="#112e42" stroke="#112e42"></path><path d="M122 319.9L111 360.7L127 367.7Z" fill="#00101c" stroke="#00101c"></path><path d="M127 367.7L107 414.6L159 421.6Z" fill="#081a28" stroke="#081a28"></path><path d="M109 304.9L111 360.7L122 319.9Z" fill="#19435d" stroke="#19435d"></path><path d="M152 539.1L166 538.1L165 511.3Z" fill="#277297" stroke="#277297"></path><path d="M165 511.3L166 538.1L208 519.3Z" fill="#1d4e6b" stroke="#1d4e6b"></path><path d="M694 600L739 600L738 541.1Z" fill="#00101c" stroke="#00101c"></path><path d="M166 538.1L213 600L208 519.3Z" fill="#297ea6" stroke="#297ea6"></path><path d="M238 588.1L213 600L276 600Z" fill="#205a7a" stroke="#205a7a"></path><path d="M98 218.3L135 208.3L102 166.6Z" fill="#00101c" stroke="#00101c"></path><path d="M145 206.4L135 208.3L141 255.1Z" fill="#246688" stroke="#246688"></path><path d="M95 246.1L109 304.9L122 289.1Z" fill="#246688" stroke="#246688"></path><path d="M122 289.1L109 304.9L122 319.9Z" fill="#15384f" stroke="#15384f"></path><path d="M620 0L590 52.7L652 45.9Z" fill="#205a7a" stroke="#205a7a"></path><path d="M620 0L652 45.9L701 0Z" fill="#277297" stroke="#277297"></path><path d="M796 119.7L774 120.6L788 177.4Z" fill="#081a28" stroke="#081a28"></path><path d="M788 177.4L774 120.6L757 163.6Z" fill="#15384f" stroke="#15384f"></path><path d="M755 119.7L749 65.7L673 57.9Z" fill="#277297" stroke="#277297"></path><path d="M900 320.9L848 317L840 326Z" fill="#112e42" stroke="#112e42"></path><path d="M840 326L848 317L811 323.9Z" fill="#19435d" stroke="#19435d"></path><path d="M701 0L652 45.9L673 57.9Z" fill="#205a7a" stroke="#205a7a"></path><path d="M92 457.6L64 451.6L79 469.4Z" fill="#0c2435" stroke="#0c2435"></path><path d="M111 360.7L107 414.6L127 367.7Z" fill="#297ea6" stroke="#297ea6"></path><path d="M145 484.3L152 539.1L165 511.3Z" fill="#297ea6" stroke="#297ea6"></path><path d="M79 532.3L152 539.1L145 484.3Z" fill="#112e42" stroke="#112e42"></path><path d="M166 538.1L158 600L213 600Z" fill="#297ea6" stroke="#297ea6"></path><path d="M900 210.4L787 228.3L818 278.1Z" fill="#205a7a" stroke="#205a7a"></path><path d="M900 320.9L856 308.9L848 317Z" fill="#246688" stroke="#246688"></path><path d="M848 317L856 295.1L818 278.1Z" fill="#246688" stroke="#246688"></path><path d="M840 326L819 367.7L900 395.6Z" fill="#297ea6" stroke="#297ea6"></path><path d="M856 308.9L856 295.1L848 317Z" fill="#00101c" stroke="#00101c"></path><path d="M383 0L307 0L322 48.9Z" fill="#081a28" stroke="#081a28"></path><path d="M231 75.7L220 41.9L219 86.7Z" fill="#00101c" stroke="#00101c"></path><path d="M150 66.9L137 105.7L196 115.6Z" fill="#277297" stroke="#277297"></path><path d="M98 218.3L141 255.1L135 208.3Z" fill="#1d4e6b" stroke="#1d4e6b"></path><path d="M307 0L244 33.9L322 48.9Z" fill="#277297" stroke="#277297"></path><path d="M758 57.9L749 65.7L774 120.6Z" fill="#00101c" stroke="#00101c"></path><path d="M774 120.6L749 65.7L755 119.7Z" fill="#112e42" stroke="#112e42"></path><path d="M818 175.3L796 119.7L788 177.4Z" fill="#112e42" stroke="#112e42"></path><path d="M804 593.1L819 538.1L775 544.3Z" fill="#1d4e6b" stroke="#1d4e6b"></path><path d="M775 544.3L819 538.1L810 488.4Z" fill="#277297" stroke="#277297"></path><path d="M900 396.7L831 404.7L827 424.6Z" fill="#00101c" stroke="#00101c"></path><path d="M900 395.6L819 367.7L831 404.7Z" fill="#00101c" stroke="#00101c"></path><path d="M98 218.3L95 246.1L141 255.1Z" fill="#1d4e6b" stroke="#1d4e6b"></path><path d="M53 432.4L107 414.6L42 346.9Z" fill="#205a7a" stroke="#205a7a"></path><path d="M145 206.4L179 148.6L102 166.6Z" fill="#297ea6" stroke="#297ea6"></path><path d="M230 0L220 41.9L244 33.9Z" fill="#277297" stroke="#277297"></path><path d="M244 33.9L220 41.9L231 75.7Z" fill="#277297" stroke="#277297"></path><path d="M102 166.6L179 148.6L137 105.7Z" fill="#112e42" stroke="#112e42"></path><path d="M107 414.6L92 457.6L159 421.6Z" fill="#15384f" stroke="#15384f"></path><path d="M92 457.6L107 414.6L64 451.6Z" fill="#19435d" stroke="#19435d"></path><path d="M796 119.7L758 57.9L774 120.6Z" fill="#112e42" stroke="#112e42"></path><path d="M711 0L701 0L673 57.9Z" fill="#081a28" stroke="#081a28"></path><path d="M152 539.1L158 600L166 538.1Z" fill="#19435d" stroke="#19435d"></path><path d="M108 600L158 600L152 539.1Z" fill="#081a28" stroke="#081a28"></path><path d="M739 600L804 593.1L775 544.3Z" fill="#19435d" stroke="#19435d"></path><path d="M711 0L673 57.9L749 65.7Z" fill="#19435d" stroke="#19435d"></path><path d="M137 105.7L192 133.4L196 115.6Z" fill="#112e42" stroke="#112e42"></path><path d="M40 285L109 304.9L95 246.1Z" fill="#205a7a" stroke="#205a7a"></path><path d="M739 600L803 600L804 593.1Z" fill="#297ea6" stroke="#297ea6"></path><path d="M878 497.3L876 497.4L900 556.1Z" fill="#112e42" stroke="#112e42"></path><path d="M150 66.9L196 115.6L219 86.7Z" fill="#246688" stroke="#246688"></path><path d="M54 326L111 360.7L109 304.9Z" fill="#112e42" stroke="#112e42"></path><path d="M92 457.6L79 469.4L145 484.3Z" fill="#205a7a" stroke="#205a7a"></path><path d="M758 57.9L711 0L749 65.7Z" fill="#00101c" stroke="#00101c"></path><path d="M307 0L236 0L244 33.9Z" fill="#0c2435" stroke="#0c2435"></path><path d="M220 41.9L150 66.9L219 86.7Z" fill="#1d4e6b" stroke="#1d4e6b"></path><path d="M58 243.3L95 246.1L98 218.3Z" fill="#00101c" stroke="#00101c"></path><path d="M40 285L54 326L109 304.9Z" fill="#1d4e6b" stroke="#1d4e6b"></path><path d="M236 0L230 0L244 33.9Z" fill="#205a7a" stroke="#205a7a"></path><path d="M900 395.6L831 404.7L900 396.7Z" fill="#205a7a" stroke="#205a7a"></path><path d="M856 308.9L900 320.9L856 295.1Z" fill="#15384f" stroke="#15384f"></path><path d="M856 295.1L900 261L818 278.1Z" fill="#297ea6" stroke="#297ea6"></path><path d="M818 175.3L828 93.6L796 119.7Z" fill="#297ea6" stroke="#297ea6"></path><path d="M827 424.6L900 449.4L900 396.7Z" fill="#19435d" stroke="#19435d"></path><path d="M53 432.4L64 451.6L107 414.6Z" fill="#205a7a" stroke="#205a7a"></path><path d="M79 469.4L79 532.3L145 484.3Z" fill="#1d4e6b" stroke="#1d4e6b"></path><path d="M827 424.6L810 488.4L876 497.4Z" fill="#19435d" stroke="#19435d"></path><path d="M876 497.4L810 488.4L819 538.1Z" fill="#297ea6" stroke="#297ea6"></path><path d="M878 497.3L900 556.1L900 496.3Z" fill="#112e42" stroke="#112e42"></path><path d="M171 8.9L150 66.9L220 41.9Z" fill="#00101c" stroke="#00101c"></path><path d="M137 105.7L116 97.6L102 166.6Z" fill="#15384f" stroke="#15384f"></path><path d="M876 497.4L819 538.1L900 556.1Z" fill="#081a28" stroke="#081a28"></path><path d="M876 497.4L900 449.4L827 424.6Z" fill="#277297" stroke="#277297"></path><path d="M900 320.9L900 270.1L856 295.1Z" fill="#205a7a" stroke="#205a7a"></path><path d="M796 119.7L822 79.9L758 57.9Z" fill="#19435d" stroke="#19435d"></path><path d="M53 158.4L58 243.3L98 218.3Z" fill="#246688" stroke="#246688"></path><path d="M53 158.4L98 218.3L102 166.6Z" fill="#19435d" stroke="#19435d"></path><path d="M150 66.9L123 96.7L137 105.7Z" fill="#19435d" stroke="#19435d"></path><path d="M900 270.1L900 261L856 295.1Z" fill="#297ea6" stroke="#297ea6"></path><path d="M875 156.4L828 93.6L818 175.3Z" fill="#00101c" stroke="#00101c"></path><path d="M758 57.9L759 8.9L711 0Z" fill="#112e42" stroke="#112e42"></path><path d="M42 346.9L107 414.6L111 360.7Z" fill="#00101c" stroke="#00101c"></path><path d="M54 326L42 346.9L111 360.7Z" fill="#1d4e6b" stroke="#1d4e6b"></path><path d="M24 290.1L42 346.9L54 326Z" fill="#277297" stroke="#277297"></path><path d="M230 0L212 0L220 41.9Z" fill="#205a7a" stroke="#205a7a"></path><path d="M828 93.6L822 79.9L796 119.7Z" fill="#205a7a" stroke="#205a7a"></path><path d="M878 497.3L900 449.4L876 497.4Z" fill="#00101c" stroke="#00101c"></path><path d="M150 66.9L116 97.6L123 96.7Z" fill="#205a7a" stroke="#205a7a"></path><path d="M123 96.7L116 97.6L137 105.7Z" fill="#00101c" stroke="#00101c"></path><path d="M78 61.9L116 97.6L150 66.9Z" fill="#297ea6" stroke="#297ea6"></path><path d="M766 0L759 8.9L830 0Z" fill="#246688" stroke="#246688"></path><path d="M67 525.1L79 469.4L42 517.1Z" fill="#205a7a" stroke="#205a7a"></path><path d="M67 525.1L79 532.3L79 469.4Z" fill="#205a7a" stroke="#205a7a"></path><path d="M24 290.1L0 273.1L0 278Z" fill="#081a28" stroke="#081a28"></path><path d="M58 243.3L40 285L95 246.1Z" fill="#277297" stroke="#277297"></path><path d="M828 93.6L900 71.9L822 79.9Z" fill="#112e42" stroke="#112e42"></path><path d="M900 194.3L875 156.4L818 175.3Z" fill="#081a28" stroke="#081a28"></path><path d="M900 261L900 210.4L818 278.1Z" fill="#15384f" stroke="#15384f"></path><path d="M42 517.1L79 469.4L32 504.3Z" fill="#15384f" stroke="#15384f"></path><path d="M79 532.3L108 600L152 539.1Z" fill="#15384f" stroke="#15384f"></path><path d="M106 600L108 600L79 532.3Z" fill="#00101c" stroke="#00101c"></path><path d="M900 210.4L900 194.3L818 175.3Z" fill="#277297" stroke="#277297"></path><path d="M34 600L106 600L79 532.3Z" fill="#0c2435" stroke="#0c2435"></path><path d="M867 600L819 538.1L804 593.1Z" fill="#0c2435" stroke="#0c2435"></path><path d="M878 497.3L900 496.3L900 449.4Z" fill="#297ea6" stroke="#297ea6"></path><path d="M830 0L759 8.9L758 57.9Z" fill="#112e42" stroke="#112e42"></path><path d="M759 8.9L766 0L711 0Z" fill="#19435d" stroke="#19435d"></path><path d="M212 0L171 8.9L220 41.9Z" fill="#081a28" stroke="#081a28"></path><path d="M24 290.1L40 285L0 273.1Z" fill="#112e42" stroke="#112e42"></path><path d="M40 285L24 290.1L54 326Z" fill="#00101c" stroke="#00101c"></path><path d="M42 346.9L11 372.7L53 432.4Z" fill="#081a28" stroke="#081a28"></path><path d="M32 504.3L79 469.4L64 451.6Z" fill="#1d4e6b" stroke="#1d4e6b"></path><path d="M49 150.4L102 166.6L116 97.6Z" fill="#277297" stroke="#277297"></path><path d="M49 150.4L53 158.4L102 166.6Z" fill="#277297" stroke="#277297"></path><path d="M0 357.9L11 372.7L42 346.9Z" fill="#297ea6" stroke="#297ea6"></path><path d="M803 600L867 600L804 593.1Z" fill="#081a28" stroke="#081a28"></path><path d="M32 504.3L64 451.6L0 486.4Z" fill="#15384f" stroke="#15384f"></path><path d="M67 525.1L34 600L79 532.3Z" fill="#1d4e6b" stroke="#1d4e6b"></path><path d="M875 156.4L891 102.7L828 93.6Z" fill="#00101c" stroke="#00101c"></path><path d="M822 79.9L830 0L758 57.9Z" fill="#00101c" stroke="#00101c"></path><path d="M900 194.3L900 145.6L875 156.4Z" fill="#19435d" stroke="#19435d"></path><path d="M45 108.7L49 150.4L116 97.6Z" fill="#19435d" stroke="#19435d"></path><path d="M0 273.1L40 285L58 243.3Z" fill="#1d4e6b" stroke="#1d4e6b"></path><path d="M0 486.4L64 451.6L53 432.4Z" fill="#15384f" stroke="#15384f"></path><path d="M42 517.1L34 600L67 525.1Z" fill="#205a7a" stroke="#205a7a"></path><path d="M867 600L900 556.1L819 538.1Z" fill="#15384f" stroke="#15384f"></path><path d="M24 290.1L0 357.9L42 346.9Z" fill="#277297" stroke="#277297"></path><path d="M11 372.7L0 391.6L53 432.4Z" fill="#297ea6" stroke="#297ea6"></path><path d="M0 278L0 357.9L24 290.1Z" fill="#0c2435" stroke="#0c2435"></path><path d="M0 357.9L0 374.7L11 372.7Z" fill="#205a7a" stroke="#205a7a"></path><path d="M0 374.7L0 391.6L11 372.7Z" fill="#297ea6" stroke="#297ea6"></path><path d="M900 113.7L891 102.7L875 156.4Z" fill="#0c2435" stroke="#0c2435"></path><path d="M0 273.1L58 243.3L0 230.3Z" fill="#1d4e6b" stroke="#1d4e6b"></path><path d="M0 230.3L58 243.3L53 158.4Z" fill="#1d4e6b" stroke="#1d4e6b"></path><path d="M900 145.6L900 113.7L875 156.4Z" fill="#297ea6" stroke="#297ea6"></path><path d="M110 0L78 61.9L150 66.9Z" fill="#15384f" stroke="#15384f"></path><path d="M0 145.4L0 230.3L53 158.4Z" fill="#00101c" stroke="#00101c"></path><path d="M0 145.4L53 158.4L49 150.4Z" fill="#112e42" stroke="#112e42"></path><path d="M78 61.9L45 108.7L116 97.6Z" fill="#1d4e6b" stroke="#1d4e6b"></path><path d="M845 0L830 0L822 79.9Z" fill="#19435d" stroke="#19435d"></path><path d="M900 71.9L828 93.6L891 102.7Z" fill="#205a7a" stroke="#205a7a"></path><path d="M867 600L900 600L900 556.1Z" fill="#246688" stroke="#246688"></path><path d="M0 391.6L0 486.4L53 432.4Z" fill="#15384f" stroke="#15384f"></path><path d="M32 504.3L0 539.3L42 517.1Z" fill="#15384f" stroke="#15384f"></path><path d="M212 0L110 0L171 8.9Z" fill="#081a28" stroke="#081a28"></path><path d="M171 8.9L110 0L150 66.9Z" fill="#15384f" stroke="#15384f"></path><path d="M78 61.9L40 89.6L45 108.7Z" fill="#0c2435" stroke="#0c2435"></path><path d="M900 113.7L900 71.9L891 102.7Z" fill="#246688" stroke="#246688"></path><path d="M885 12.9L845 0L822 79.9Z" fill="#277297" stroke="#277297"></path><path d="M9 55.9L40 89.6L78 61.9Z" fill="#112e42" stroke="#112e42"></path><path d="M0 124.6L0 145.4L49 150.4Z" fill="#246688" stroke="#246688"></path><path d="M0 548.1L34 600L42 517.1Z" fill="#112e42" stroke="#112e42"></path><path d="M0 486.4L0 539.3L32 504.3Z" fill="#277297" stroke="#277297"></path><path d="M0 124.6L49 150.4L45 108.7Z" fill="#1d4e6b" stroke="#1d4e6b"></path><path d="M0 539.3L0 548.1L42 517.1Z" fill="#0c2435" stroke="#0c2435"></path><path d="M110 0L83 0L78 61.9Z" fill="#297ea6" stroke="#297ea6"></path><path d="M0 120.7L0 124.6L45 108.7Z" fill="#15384f" stroke="#15384f"></path><path d="M0 120.7L45 108.7L40 89.6Z" fill="#081a28" stroke="#081a28"></path><path d="M9 55.9L0 120.7L40 89.6Z" fill="#0c2435" stroke="#0c2435"></path><path d="M900 71.9L885 12.9L822 79.9Z" fill="#00101c" stroke="#00101c"></path><path d="M0 548.1L0 600L34 600Z" fill="#19435d" stroke="#19435d"></path><path d="M900 71.9L900 0L885 12.9Z" fill="#081a28" stroke="#081a28"></path><path d="M885 12.9L900 0L845 0Z" fill="#081a28" stroke="#081a28"></path><path d="M32 0L9 55.9L78 61.9Z" fill="#297ea6" stroke="#297ea6"></path><path d="M83 0L32 0L78 61.9Z" fill="#297ea6" stroke="#297ea6"></path><path d="M32 0L0 14.9L9 55.9Z" fill="#19435d" stroke="#19435d"></path><path d="M9 55.9L0 14.9L0 120.7Z" fill="#277297" stroke="#277297"></path><path d="M32 0L0 0L0 14.9Z" fill="#19435d" stroke="#19435d"></path></g></svg>